<?xml version="1.0" encoding="UTF-8"?>
<svg width="150px" height="150px" viewBox="0 0 150 150" version="1.1" xmlns="http://www.w3.org/2000/svg" xmlns:xlink="http://www.w3.org/1999/xlink">
    <!-- Generator: Sketch 55.2 (78181) - https://sketchapp.com -->
    <title>icon-post-tweet-twitterblue</title>
    <desc>Created with Sketch.</desc>
    <g id="icon-post-tweet-twitterblue" stroke="none" stroke-width="1" fill="none" fill-rule="evenodd">
        <circle id="Oval" fill="#1DA1F2" cx="74.5" cy="75.5" r="64.5"></circle>
        <text id="+" fill="#FFFFFF" font-family="ArialRoundedMTBold, Arial Rounded MT Bold" font-size="39" font-weight="normal">
            <tspan x="47" y="67">+</tspan>
        </text>
        <g id="quill" transform="translate(54.000000, 51.000000)" fill="#FFFFFF" fill-rule="nonzero">
            <path d="M52.7727975,0 C27.8221341,0 7.29957082,19.2242051 5.12487038,43.6550449 C9.27061961,37.7992949 14.3491394,32.1647949 20.6892639,25.687125 C21.1605391,25.200375 21.9410887,25.1905801 22.4246751,25.6699551 C22.9082614,26.144375 22.9156251,26.9237051 22.4418186,27.4080352 C21.486957,28.3815352 20.5174832,29.3919102 19.5429467,30.4146152 C18.9857236,30.9972402 18.4408116,31.5774453 17.9057946,32.1477402 C17.8076506,32.2534102 17.7093916,32.3591953 17.6112476,32.4672852 C9.776297,40.8698301 4.17495625,48.1832949 0.107676187,57.266875 C-0.169727271,57.886375 0.107676187,58.6140801 0.723808712,58.8917949 C0.888225776,58.9655449 1.05759031,59 1.22695484,59 C1.69581386,59 2.14499806,58.7295449 2.3486497,58.2748301 C3.79687755,55.0421602 5.47821174,52.0429551 7.3682601,49.124875 C24.5108964,48.6847949 40.1145245,39.1341699 48.2931516,23.9368301 C48.4969183,23.55575 48.4870234,23.0960801 48.2661131,22.722375 C48.0427866,22.353625 47.6426169,22.125 47.2106913,22.125 L42.6648874,22.125 L50.816476,17.4590449 C51.0742047,17.3115449 51.2730239,17.073125 51.3687517,16.792875 C53.116359,11.704125 54,6.467875 54,1.22920508 C54,0.550705078 53.4502556,0 52.7727975,0 Z" id="Path"></path>
        </g>
    </g>
</svg>