<?xml version="1.0" encoding="UTF-8"?>
<svg width="150px" height="150px" viewBox="0 0 150 150" version="1.1" xmlns="http://www.w3.org/2000/svg" xmlns:xlink="http://www.w3.org/1999/xlink">
    <!-- Generator: Sketch 55.2 (78181) - https://sketchapp.com -->
    <title>icon-comment</title>
    <desc>Created with Sketch.</desc>
    <g id="icon-comment" stroke="none" stroke-width="1" fill="none" fill-rule="evenodd">
        <g id="icon-heart" transform="translate(12.000000, 19.000000)" fill="#474747" fill-rule="nonzero">
            <path d="M63.5,113 C61.6919709,113 59.9488602,112.344939 58.5904159,111.154975 C53.4599153,106.668388 48.5135116,102.452158 44.1494369,98.7330377 L44.1271516,98.7136572 C31.3323898,87.8092135 20.2836458,78.3922237 12.5961304,69.1157427 C4.00266272,58.7452321 0,48.9125304 0,38.170883 C0,27.7344784 3.5782699,18.1062411 10.0749666,11.0585188 C16.6491776,3.92746023 25.6699447,0 35.4784546,0 C42.8094026,0 49.52314,2.31790896 55.4326628,6.88880212 C58.4150391,9.19605174 61.1183626,12.0197921 63.5,15.3135098 C65.8826066,12.0197921 68.5849609,9.19605174 71.568306,6.88880212 C77.4778289,2.31790896 84.1915665,0 91.5225143,0 C101.330055,0 110.351791,3.92746023 116.926003,11.0585188 C123.422699,18.1062411 127,27.7344784 127,38.170883 C127,48.9125304 122.998306,58.7452321 114.404839,69.1147738 C106.717323,78.3922237 95.669548,87.8082445 82.8767244,98.7117193 C78.5048982,102.436653 73.550743,106.659666 68.408615,111.156914 C67.0511398,112.344939 65.3070602,113 63.5,113 L63.5,113 Z M35.4784546,7.44017781 C27.7725297,7.44017781 20.6935043,10.5158646 15.5436248,16.1013275 C10.3171997,21.7710957 7.43849939,29.6085738 7.43849939,38.170883 C7.43849939,47.2051074 10.7958528,55.284842 18.323494,64.3684868 C25.5992126,73.1488269 36.4212264,82.3720114 48.9514694,93.0516412 L48.9747238,93.071022 C53.3552703,96.8046771 58.3210526,101.03738 63.4893417,105.556915 C68.6886368,101.028659 73.6621704,96.7891727 78.0514373,93.0497033 C90.5807113,82.3700735 101.401756,73.1488269 108.677475,64.3684868 C116.204147,55.284842 119.561501,47.2051074 119.561501,38.170883 C119.561501,29.6085738 116.6828,21.7710957 111.456375,16.1013275 C106.307465,10.5158646 99.2274703,7.44017781 91.5225143,7.44017781 C85.8775101,7.44017781 80.6946868,9.23481276 76.1184159,12.7736941 C72.0401765,15.9288411 69.1992644,19.9173497 67.5336686,22.7081431 C66.6771317,24.1432701 65.1694718,24.9998886 63.5,24.9998886 C61.8305282,24.9998886 60.3228683,24.1432701 59.4663314,22.7081431 C57.8017045,19.9173497 54.9607926,15.9288411 50.8815841,12.7736941 C46.3053132,9.23481276 41.1224899,7.44017781 35.4784546,7.44017781 Z" id="Shape"></path>
        </g>
    </g>
</svg>