<?xml version="1.0" encoding="UTF-8"?>
<svg width="150px" height="150px" viewBox="0 0 150 150" version="1.1" xmlns="http://www.w3.org/2000/svg" xmlns:xlink="http://www.w3.org/1999/xlink">
    <!-- Generator: Sketch 55.2 (78181) - https://sketchapp.com -->
    <title>icon-picture-twitterblue</title>
    <desc>Created with Sketch.</desc>
    <g id="icon-picture-twitterblue" stroke="none" stroke-width="1" fill="none" fill-rule="evenodd">
        <g id="picture" transform="translate(10.000000, 29.000000)" fill="#1DA1F2" fill-rule="nonzero">
            <path d="M115.178581,0 L13.8214189,0 C6.18805442,0 0,6.17847088 0,13.8000135 L0,78.1999865 C0,85.8215291 6.18805442,92 13.8214189,92 L115.178581,92 C122.811946,92 129,85.8215291 129,78.1999865 L129,13.8000135 C129,6.17847088 122.811946,0 115.178581,0 Z M119.785811,53.2955442 L90.7929549,24.3478597 C88.9940109,22.5519712 86.0774755,22.5519712 84.2785315,24.3478597 L46.0714864,62.4954634 L30.9000496,47.3475228 C29.1011055,45.5516343 26.1845702,45.5516343 24.3856261,47.3475228 L9.2141893,62.4954634 L9.2141893,13.8000135 C9.2141893,11.2594094 11.2768741,9.19991914 13.8214189,9.19991914 L115.178581,9.19991914 C117.723126,9.19991914 119.785811,11.2594094 119.785811,13.8000135 L119.785811,53.2955442 L119.785811,53.2955442 Z" id="Shape"></path>
            <circle id="Oval" cx="41" cy="32" r="14"></circle>
        </g>
    </g>
</svg>